{
  "accessors": [
    {
      "bufferView": 0,
      "componentType": 5125,
      "count": 17520,
      "type": "SCALAR"
    },
    {
      "bufferView": 1,
      "componentType": 5126,
      "count": 4087,
      "max": [
        18.7675323486328,
        54.9548377990723,
        4.25266361236572
      ],
      "min": [
        -19.7117595672607,
        4.48646545410156,
        -8.79858684539795
      ],
      "type": "VEC3"
    },
    {
      "bufferView": 2,
      "componentType": 5126,
      "count": 4087,
      "type": "VEC3"
    },
    {
      "bufferView": 3,
      "componentType": 5126,
      "count": 4087,
      "type": "VEC4"
    },
    {
      "bufferView": 4,
      "componentType": 5126,
      "count": 4087,
      "type": "VEC2"
    },
    {
      "bufferView": 5,
      "componentType": 5125,
      "count": 21111,
      "type": "SCALAR"
    },
    {
      "bufferView": 6,
      "componentType": 5126,
      "count": 5745,
      "max": [
        18.7675323486328,
        54.9548377990723,
        12.3473482131958
      ],
      "min": [
        -19.6831722259521,
        4.48646545410156,
        1.15556693077087
      ],
      "type": "VEC3"
    },
    {
      "bufferView": 7,
      "componentType": 5126,
      "count": 5745,
      "type": "VEC3"
    },
    {
      "bufferView": 8,
      "componentType": 5126,
      "count": 5745,
      "type": "VEC4"
    },
    {
      "bufferView": 9,
      "componentType": 5126,
      "count": 5745,
      "type": "VEC2"
    },
    {
      "bufferView": 10,
      "componentType": 5125,
      "count": 4272,
      "type": "SCALAR"
    },
    {
      "bufferView": 11,
      "componentType": 5126,
      "count": 800,
      "max": [
        25.8757743835449,
        2.0498104095459,
        5.53031921386719
      ],
      "min": [
        -10.0117778778076,
        -2.06722259521484,
        -15.3974905014038
      ],
      "type": "VEC3"
    },
    {
      "bufferView": 12,
      "componentType": 5126,
      "count": 800,
      "type": "VEC3"
    },
    {
      "bufferView": 13,
      "componentType": 5126,
      "count": 800,
      "type": "VEC4"
    },
    {
      "bufferView": 14,
      "componentType": 5126,
      "count": 800,
      "type": "VEC2"
    },
    {
      "bufferView": 15,
      "componentType": 5125,
      "count": 2046,
      "type": "SCALAR"
    },
    {
      "bufferView": 16,
      "componentType": 5126,
      "count": 387,
      "max": [
        13.9936380386353,
        49.2531852722168,
        12.4943475723267
      ],
      "min": [
        -4.2897515296936,
        28.1202945709229,
        -8.63635063171387
      ],
      "type": "VEC3"
    },
    {
      "bufferView": 17,
      "componentType": 5126,
      "count": 387,
      "type": "VEC3"
    },
    {
      "bufferView": 18,
      "componentType": 5126,
      "count": 387,
      "type": "VEC4"
    },
    {
      "bufferView": 19,
      "componentType": 5126,
      "count": 387,
      "type": "VEC2"
    },
    {
      "bufferView": 20,
      "componentType": 5125,
      "count": 49584,
      "type": "SCALAR"
    },
    {
      "bufferView": 21,
      "componentType": 5126,
      "count": 11647,
      "max": [
        15.8238925933838,
        27.9656162261963,
        12.4826364517212
      ],
      "min": [
        -23.0811958312988,
        -26.8662014007568,
        -8.54955673217773
      ],
      "type": "VEC3"
    },
    {
      "bufferView": 22,
      "componentType": 5126,
      "count": 11647,
      "type": "VEC3"
    },
    {
      "bufferView": 23,
      "componentType": 5126,
      "count": 11647,
      "type": "VEC4"
    },
    {
      "bufferView": 24,
      "componentType": 5126,
      "count": 11647,
      "type": "VEC2"
    }
  ],
  "asset": {
    "generator": "Adobe Substance 3D Painter 11.0.2",
    "version": "2.0"
  },
  "bufferViews": [
    {
      "buffer": 0,
      "byteLength": 70080,
      "target": 34963
    },
    {
      "buffer": 0,
      "byteLength": 49044,
      "byteOffset": 70080,
      "target": 34962
    },
    {
      "buffer": 0,
      "byteLength": 49044,
      "byteOffset": 119124,
      "target": 34962
    },
    {
      "buffer": 0,
      "byteLength": 65392,
      "byteOffset": 168168,
      "target": 34962
    },
    {
      "buffer": 0,
      "byteLength": 32696,
      "byteOffset": 233560,
      "target": 34962
    },
    {
      "buffer": 0,
      "byteLength": 84444,
      "byteOffset": 266256,
      "target": 34963
    },
    {
      "buffer": 0,
      "byteLength": 68940,
      "byteOffset": 350700,
      "target": 34962
    },
    {
      "buffer": 0,
      "byteLength": 68940,
      "byteOffset": 419640,
      "target": 34962
    },
    {
      "buffer": 0,
      "byteLength": 91920,
      "byteOffset": 488580,
      "target": 34962
    },
    {
      "buffer": 0,
      "byteLength": 45960,
      "byteOffset": 580500,
      "target": 34962
    },
    {
      "buffer": 0,
      "byteLength": 17088,
      "byteOffset": 626460,
      "target": 34963
    },
    {
      "buffer": 0,
      "byteLength": 9600,
      "byteOffset": 643548,
      "target": 34962
    },
    {
      "buffer": 0,
      "byteLength": 9600,
      "byteOffset": 653148,
      "target": 34962
    },
    {
      "buffer": 0,
      "byteLength": 12800,
      "byteOffset": 662748,
      "target": 34962
    },
    {
      "buffer": 0,
      "byteLength": 6400,
      "byteOffset": 675548,
      "target": 34962
    },
    {
      "buffer": 0,
      "byteLength": 8184,
      "byteOffset": 681948,
      "target": 34963
    },
    {
      "buffer": 0,
      "byteLength": 4644,
      "byteOffset": 690132,
      "target": 34962
    },
    {
      "buffer": 0,
      "byteLength": 4644,
      "byteOffset": 694776,
      "target": 34962
    },
    {
      "buffer": 0,
      "byteLength": 6192,
      "byteOffset": 699420,
      "target": 34962
    },
    {
      "buffer": 0,
      "byteLength": 3096,
      "byteOffset": 705612,
      "target": 34962
    },
    {
      "buffer": 0,
      "byteLength": 198336,
      "byteOffset": 708708,
      "target": 34963
    },
    {
      "buffer": 0,
      "byteLength": 139764,
      "byteOffset": 907044,
      "target": 34962
    },
    {
      "buffer": 0,
      "byteLength": 139764,
      "byteOffset": 1046808,
      "target": 34962
    },
    {
      "buffer": 0,
      "byteLength": 186352,
      "byteOffset": 1186572,
      "target": 34962
    },
    {
      "buffer": 0,
      "byteLength": 93176,
      "byteOffset": 1372924,
      "target": 34962
    }
  ],
  "buffers": [
    {
      "byteLength": 1466100,
      "uri": "retopo.bin"
    }
  ],
  "images": [
    {
      "uri": "calco_rueda__baseColor.png"
    },
    {
      "uri": "calco_rueda__occlusionRoughnessMetallic.png"
    },
    {
      "uri": "calco_rueda__normal.png"
    },
    {
      "uri": "calco_rueda__emissive.png"
    },
    {
      "uri": "contratapa_baseColor.png"
    },
    {
      "uri": "contratapa_occlusionRoughnessMetallic.png"
    },
    {
      "uri": "contratapa_normal.png"
    },
    {
      "uri": "contratapa_emissive.png"
    },
    {
      "uri": "Logos_baseColor.png"
    },
    {
      "uri": "Logos_occlusionRoughnessMetallic.png"
    },
    {
      "uri": "Logos_normal.png"
    },
    {
      "uri": "Logos_emissive.png"
    },
    {
      "uri": "resto_baseColor.png"
    },
    {
      "uri": "resto_occlusionRoughnessMetallic.png"
    },
    {
      "uri": "resto_normal.png"
    },
    {
      "uri": "resto_emissive.png"
    },
    {
      "uri": "tapa_baseColor.png"
    },
    {
      "uri": "tapa_occlusionRoughnessMetallic.png"
    },
    {
      "uri": "tapa_normal.png"
    },
    {
      "uri": "tapa_emissive.png"
    }
  ],
  "materials": [
    {
      "alphaMode": "BLEND",
      "emissiveFactor": [
        1.0,
        1.0,
        1.0
      ],
      "emissiveTexture": {
        "index": 3
      },
      "name": "calco_rueda_",
      "normalTexture": {
        "index": 2
      },
      "occlusionTexture": {
        "index": 1
      },
      "pbrMetallicRoughness": {
        "baseColorTexture": {
          "index": 0
        },
        "metallicRoughnessTexture": {
          "index": 1
        }
      }
    },
    {
      "alphaMode": "BLEND",
      "emissiveFactor": [
        1.0,
        1.0,
        1.0
      ],
      "emissiveTexture": {
        "index": 7
      },
      "name": "contratapa",
      "normalTexture": {
        "index": 6
      },
      "occlusionTexture": {
        "index": 5
      },
      "pbrMetallicRoughness": {
        "baseColorTexture": {
          "index": 4
        },
        "metallicRoughnessTexture": {
          "index": 5
        }
      }
    },
    {
      "alphaMode": "BLEND",
      "emissiveFactor": [
        1.0,
        1.0,
        1.0
      ],
      "emissiveTexture": {
        "index": 11
      },
      "name": "Logos",
      "normalTexture": {
        "index": 10
      },
      "occlusionTexture": {
        "index": 9
      },
      "pbrMetallicRoughness": {
        "baseColorTexture": {
          "index": 8
        },
        "metallicRoughnessTexture": {
          "index": 9
        }
      }
    },
    {
      "alphaMode": "BLEND",
      "emissiveFactor": [
        1.0,
        1.0,
        1.0
      ],
      "emissiveTexture": {
        "index": 15
      },
      "name": "resto",
      "normalTexture": {
        "index": 14
      },
      "occlusionTexture": {
        "index": 13
      },
      "pbrMetallicRoughness": {
        "baseColorTexture": {
          "index": 12
        },
        "metallicRoughnessTexture": {
          "index": 13
        }
      }
    },
    {
      "alphaMode": "BLEND",
      "emissiveFactor": [
        1.0,
        1.0,
        1.0
      ],
      "emissiveTexture": {
        "index": 19
      },
      "name": "tapa",
      "normalTexture": {
        "index": 18
      },
      "occlusionTexture": {
        "index": 17
      },
      "pbrMetallicRoughness": {
        "baseColorTexture": {
          "index": 16
        },
        "metallicRoughnessTexture": {
          "index": 17
        }
      }
    }
  ],
  "meshes": [
    {
      "name": "contratapa",
      "primitives": [
        {
          "attributes": {
            "NORMAL": 2,
            "POSITION": 1,
            "TANGENT": 3,
            "TEXCOORD_0": 4
          },
          "indices": 0,
          "material": 1,
          "mode": 4
        }
      ]
    },
    {
      "name": "tapa",
      "primitives": [
        {
          "attributes": {
            "NORMAL": 7,
            "POSITION": 6,
            "TANGENT": 8,
            "TEXCOORD_0": 9
          },
          "indices": 5,
          "material": 4,
          "mode": 4
        }
      ]
    },
    {
      "name": "calco_rueda_",
      "primitives": [
        {
          "attributes": {
            "NORMAL": 12,
            "POSITION": 11,
            "TANGENT": 13,
            "TEXCOORD_0": 14
          },
          "indices": 10,
          "material": 0,
          "mode": 4
        }
      ]
    },
    {
      "name": "Logos",
      "primitives": [
        {
          "attributes": {
            "NORMAL": 17,
            "POSITION": 16,
            "TANGENT": 18,
            "TEXCOORD_0": 19
          },
          "indices": 15,
          "material": 2,
          "mode": 4
        }
      ]
    },
    {
      "name": "resto",
      "primitives": [
        {
          "attributes": {
            "NORMAL": 22,
            "POSITION": 21,
            "TANGENT": 23,
            "TEXCOORD_0": 24
          },
          "indices": 20,
          "material": 3,
          "mode": 4
        }
      ]
    }
  ],
  "nodes": [
    {
      "children": [
        1,
        3,
        5,
        7,
        9
      ],
      "name": "RootNode",
      "scale": [
        0.00999999977648258,
        0.00999999977648258,
        0.00999999977648258
      ]
    },
    {
      "children": [
        2
      ],
      "name": "contratapa"
    },
    {
      "mesh": 0,
      "name": "contratapa"
    },
    {
      "children": [
        4
      ],
      "name": "tapa"
    },
    {
      "mesh": 1,
      "name": "tapa"
    },
    {
      "children": [
        6
      ],
      "name": "calco_rueda_",
      "translation": [
        -6.04598760604858,
        2.57627701759338,
        6.63562488555908
      ]
    },
    {
      "mesh": 2,
      "name": "calco_rueda_"
    },
    {
      "children": [
        8
      ],
      "name": "Logos"
    },
    {
      "mesh": 3,
      "name": "Logos"
    },
    {
      "children": [
        10
      ],
      "name": "resto",
      "translation": [
        4.47736024856567,
        26.9175472259521,
        -0.428814917802811
      ]
    },
    {
      "mesh": 4,
      "name": "resto"
    }
  ],
  "samplers": [
    {
      "magFilter": 9729,
      "minFilter": 9985,
      "wrapS": 10497,
      "wrapT": 10497
    }
  ],
  "scene": 0,
  "scenes": [
    {
      "name": "Scene",
      "nodes": [
        0
      ]
    }
  ],
  "textures": [
    {
      "sampler": 0,
      "source": 0
    },
    {
      "sampler": 0,
      "source": 1
    },
    {
      "sampler": 0,
      "source": 2
    },
    {
      "sampler": 0,
      "source": 3
    },
    {
      "sampler": 0,
      "source": 4
    },
    {
      "sampler": 0,
      "source": 5
    },
    {
      "sampler": 0,
      "source": 6
    },
    {
      "sampler": 0,
      "source": 7
    },
    {
      "sampler": 0,
      "source": 8
    },
    {
      "sampler": 0,
      "source": 9
    },
    {
      "sampler": 0,
      "source": 10
    },
    {
      "sampler": 0,
      "source": 11
    },
    {
      "sampler": 0,
      "source": 12
    },
    {
      "sampler": 0,
      "source": 13
    },
    {
      "sampler": 0,
      "source": 14
    },
    {
      "sampler": 0,
      "source": 15
    },
    {
      "sampler": 0,
      "source": 16
    },
    {
      "sampler": 0,
      "source": 17
    },
    {
      "sampler": 0,
      "source": 18
    },
    {
      "sampler": 0,
      "source": 19
    }
  ]
}