{
	"asset":{
		"generator":"Khronos glTF Blender I/O v5.0.21",
		"version":"2.0"
	},
	"scene":0,
	"scenes":[
		{
			"name":"Scene",
			"nodes":[
				10
			]
		}
	],
	"nodes":[
		{
			"mesh":0,
			"name":"calco_rueda_.001"
		},
		{
			"children":[
				0
			],
			"name":"calco_rueda_",
			"translation":[
				-6.045987606048584,
				2.576277017593384,
				6.635624885559082
			]
		},
		{
			"mesh":1,
			"name":"contratapa.001"
		},
		{
			"children":[
				2
			],
			"name":"contratapa"
		},
		{
			"mesh":2,
			"name":"Logos.001"
		},
		{
			"children":[
				4
			],
			"name":"Logos"
		},
		{
			"mesh":3,
			"name":"resto.001"
		},
		{
			"children":[
				6
			],
			"name":"resto",
			"translation":[
				4.477360248565674,
				26.91754722595215,
				-0.42881491780281067
			]
		},
		{
			"mesh":4,
			"name":"tapa.001"
		},
		{
			"children":[
				8
			],
			"name":"tapa"
		},
		{
			"children":[
				1,
				3,
				5,
				7,
				9
			],
			"name":"RootNode",
			"scale":[
				0.009999999776482582,
				0.009999999776482582,
				0.009999999776482582
			]
		}
	],
	"materials":[
		{
			"name":"calco_rueda_",
			"occlusionTexture":{
				"index":0
			},
			"pbrMetallicRoughness":{
				"baseColorTexture":{
					"index":1
				},
				"metallicRoughnessTexture":{
					"index":0
				}
			}
		},
		{
			"name":"contratapa",
			"normalTexture":{
				"index":2
			},
			"occlusionTexture":{
				"index":3
			},
			"pbrMetallicRoughness":{
				"baseColorTexture":{
					"index":4
				},
				"metallicRoughnessTexture":{
					"index":3
				}
			}
		},
		{
			"name":"Logos",
			"occlusionTexture":{
				"index":5
			},
			"pbrMetallicRoughness":{
				"baseColorTexture":{
					"index":6
				},
				"metallicRoughnessTexture":{
					"index":5
				}
			}
		},
		{
			"name":"resto",
			"occlusionTexture":{
				"index":7
			},
			"pbrMetallicRoughness":{
				"baseColorTexture":{
					"index":8
				},
				"metallicRoughnessTexture":{
					"index":7
				}
			}
		},
		{
			"name":"tapa",
			"normalTexture":{
				"index":9
			},
			"occlusionTexture":{
				"index":10
			},
			"pbrMetallicRoughness":{
				"baseColorTexture":{
					"index":11
				},
				"metallicRoughnessTexture":{
					"index":10
				}
			}
		}
	],
	"meshes":[
		{
			"name":"calco_rueda_",
			"primitives":[
				{
					"attributes":{
						"POSITION":0,
						"NORMAL":1,
						"TEXCOORD_0":2
					},
					"indices":3,
					"material":0
				}
			]
		},
		{
			"name":"contratapa",
			"primitives":[
				{
					"attributes":{
						"POSITION":4,
						"NORMAL":5,
						"TEXCOORD_0":6
					},
					"indices":7,
					"material":1
				}
			]
		},
		{
			"name":"Logos",
			"primitives":[
				{
					"attributes":{
						"POSITION":8,
						"NORMAL":9,
						"TEXCOORD_0":10
					},
					"indices":11,
					"material":2
				}
			]
		},
		{
			"name":"resto",
			"primitives":[
				{
					"attributes":{
						"POSITION":12,
						"NORMAL":13,
						"TEXCOORD_0":14
					},
					"indices":15,
					"material":3
				}
			]
		},
		{
			"name":"tapa",
			"primitives":[
				{
					"attributes":{
						"POSITION":16,
						"NORMAL":17,
						"TEXCOORD_0":18
					},
					"indices":19,
					"material":4
				}
			]
		}
	],
	"textures":[
		{
			"sampler":0,
			"source":0
		},
		{
			"sampler":0,
			"source":1
		},
		{
			"sampler":0,
			"source":2
		},
		{
			"sampler":0,
			"source":3
		},
		{
			"sampler":0,
			"source":4
		},
		{
			"sampler":0,
			"source":5
		},
		{
			"sampler":0,
			"source":6
		},
		{
			"sampler":0,
			"source":7
		},
		{
			"sampler":0,
			"source":8
		},
		{
			"sampler":0,
			"source":9
		},
		{
			"sampler":0,
			"source":10
		},
		{
			"sampler":0,
			"source":11
		}
	],
	"images":[
		{
			"mimeType":"image/png",
			"name":"Image_1",
			"uri":"Image_1.png"
		},
		{
			"mimeType":"image/png",
			"name":"Image_0",
			"uri":"Image_0.png"
		},
		{
			"mimeType":"image/png",
			"name":"Image_6",
			"uri":"Image_6.png"
		},
		{
			"mimeType":"image/png",
			"name":"Image_5",
			"uri":"Image_5.png"
		},
		{
			"mimeType":"image/png",
			"name":"Image_4",
			"uri":"Image_4.png"
		},
		{
			"mimeType":"image/png",
			"name":"Image_9",
			"uri":"Image_9.png"
		},
		{
			"mimeType":"image/png",
			"name":"Image_8",
			"uri":"Image_8.png"
		},
		{
			"mimeType":"image/png",
			"name":"Image_13",
			"uri":"Image_13.png"
		},
		{
			"mimeType":"image/png",
			"name":"Image_12",
			"uri":"Image_12.png"
		},
		{
			"mimeType":"image/png",
			"name":"Image_18",
			"uri":"Image_18.png"
		},
		{
			"mimeType":"image/png",
			"name":"Image_17",
			"uri":"Image_17.png"
		},
		{
			"mimeType":"image/png",
			"name":"Image_16",
			"uri":"Image_16.png"
		}
	],
	"accessors":[
		{
			"bufferView":0,
			"componentType":5126,
			"count":800,
			"max":[
				25.875774383544922,
				2.0498104095458984,
				5.5303192138671875
			],
			"min":[
				-10.011777877807617,
				-2.0672225952148438,
				-15.397490501403809
			],
			"type":"VEC3"
		},
		{
			"bufferView":1,
			"componentType":5126,
			"count":800,
			"type":"VEC3"
		},
		{
			"bufferView":2,
			"componentType":5126,
			"count":800,
			"type":"VEC2"
		},
		{
			"bufferView":3,
			"componentType":5123,
			"count":4272,
			"type":"SCALAR"
		},
		{
			"bufferView":4,
			"componentType":5126,
			"count":4190,
			"max":[
				18.767532348632812,
				54.954837799072266,
				4.252663612365723
			],
			"min":[
				-19.711759567260742,
				4.4864654541015625,
				-8.79858684539795
			],
			"type":"VEC3"
		},
		{
			"bufferView":5,
			"componentType":5126,
			"count":4190,
			"type":"VEC3"
		},
		{
			"bufferView":6,
			"componentType":5126,
			"count":4190,
			"type":"VEC2"
		},
		{
			"bufferView":7,
			"componentType":5123,
			"count":17520,
			"type":"SCALAR"
		},
		{
			"bufferView":8,
			"componentType":5126,
			"count":387,
			"max":[
				13.993638038635254,
				49.2531852722168,
				12.49434757232666
			],
			"min":[
				-4.2897515296936035,
				28.12029457092285,
				-8.636350631713867
			],
			"type":"VEC3"
		},
		{
			"bufferView":9,
			"componentType":5126,
			"count":387,
			"type":"VEC3"
		},
		{
			"bufferView":10,
			"componentType":5126,
			"count":387,
			"type":"VEC2"
		},
		{
			"bufferView":11,
			"componentType":5123,
			"count":2046,
			"type":"SCALAR"
		},
		{
			"bufferView":12,
			"componentType":5126,
			"count":11833,
			"max":[
				15.823892593383789,
				27.96561622619629,
				12.482636451721191
			],
			"min":[
				-23.081195831298828,
				-26.866201400756836,
				-8.549556732177734
			],
			"type":"VEC3"
		},
		{
			"bufferView":13,
			"componentType":5126,
			"count":11833,
			"type":"VEC3"
		},
		{
			"bufferView":14,
			"componentType":5126,
			"count":11833,
			"type":"VEC2"
		},
		{
			"bufferView":15,
			"componentType":5123,
			"count":49584,
			"type":"SCALAR"
		},
		{
			"bufferView":16,
			"componentType":5126,
			"count":5808,
			"max":[
				18.767532348632812,
				54.954837799072266,
				12.3473482131958
			],
			"min":[
				-19.68317222595215,
				4.4864654541015625,
				1.155566930770874
			],
			"type":"VEC3"
		},
		{
			"bufferView":17,
			"componentType":5126,
			"count":5808,
			"type":"VEC3"
		},
		{
			"bufferView":18,
			"componentType":5126,
			"count":5808,
			"type":"VEC2"
		},
		{
			"bufferView":19,
			"componentType":5123,
			"count":21111,
			"type":"SCALAR"
		}
	],
	"bufferViews":[
		{
			"buffer":0,
			"byteLength":9600,
			"byteOffset":0,
			"target":34962
		},
		{
			"buffer":0,
			"byteLength":9600,
			"byteOffset":9600,
			"target":34962
		},
		{
			"buffer":0,
			"byteLength":6400,
			"byteOffset":19200,
			"target":34962
		},
		{
			"buffer":0,
			"byteLength":8544,
			"byteOffset":25600,
			"target":34963
		},
		{
			"buffer":0,
			"byteLength":50280,
			"byteOffset":34144,
			"target":34962
		},
		{
			"buffer":0,
			"byteLength":50280,
			"byteOffset":84424,
			"target":34962
		},
		{
			"buffer":0,
			"byteLength":33520,
			"byteOffset":134704,
			"target":34962
		},
		{
			"buffer":0,
			"byteLength":35040,
			"byteOffset":168224,
			"target":34963
		},
		{
			"buffer":0,
			"byteLength":4644,
			"byteOffset":203264,
			"target":34962
		},
		{
			"buffer":0,
			"byteLength":4644,
			"byteOffset":207908,
			"target":34962
		},
		{
			"buffer":0,
			"byteLength":3096,
			"byteOffset":212552,
			"target":34962
		},
		{
			"buffer":0,
			"byteLength":4092,
			"byteOffset":215648,
			"target":34963
		},
		{
			"buffer":0,
			"byteLength":141996,
			"byteOffset":219740,
			"target":34962
		},
		{
			"buffer":0,
			"byteLength":141996,
			"byteOffset":361736,
			"target":34962
		},
		{
			"buffer":0,
			"byteLength":94664,
			"byteOffset":503732,
			"target":34962
		},
		{
			"buffer":0,
			"byteLength":99168,
			"byteOffset":598396,
			"target":34963
		},
		{
			"buffer":0,
			"byteLength":69696,
			"byteOffset":697564,
			"target":34962
		},
		{
			"buffer":0,
			"byteLength":69696,
			"byteOffset":767260,
			"target":34962
		},
		{
			"buffer":0,
			"byteLength":46464,
			"byteOffset":836956,
			"target":34962
		},
		{
			"buffer":0,
			"byteLength":42222,
			"byteOffset":883420,
			"target":34963
		}
	],
	"samplers":[
		{
			"magFilter":9729,
			"minFilter":9987
		}
	],
	"buffers":[
		{
			"byteLength":925644,
			"uri":"retopo_go.bin"
		}
	]
}
